<?xml version="1.0" encoding="UTF-8" standalone="no"?>
<!DOCTYPE svg PUBLIC "-//W3C//DTD SVG 1.1//EN"
 "http://www.w3.org/Graphics/SVG/1.1/DTD/svg11.dtd">
<!-- Generated by graphviz version 2.38.0 (20140413.2041)
 -->
<!-- Title: G Pages: 1 -->
<svg width="357pt" height="687pt"
 viewBox="0.00 0.00 357.06 687.00" xmlns="http://www.w3.org/2000/svg" xmlns:xlink="http://www.w3.org/1999/xlink">
<g id="graph0" class="graph" transform="scale(1 1) rotate(0) translate(4 683)">
<title>G</title>
<polygon fill="white" stroke="none" points="-4,4 -4,-683 353.063,-683 353.063,4 -4,4"/>
<g id="clust1" class="cluster"><title>cluster_Global</title>
<path fill="none" stroke="gray" d="M20,-44C20,-44 329.063,-44 329.063,-44 335.063,-44 341.063,-50 341.063,-56 341.063,-56 341.063,-659 341.063,-659 341.063,-665 335.063,-671 329.063,-671 329.063,-671 20,-671 20,-671 14,-671 8,-665 8,-659 8,-659 8,-56 8,-56 8,-50 14,-44 20,-44"/>
<text text-anchor="middle" x="174.532" y="-658.2" font-family="Times,serif" font-size="11.00" fill="gray">Global</text>
</g>
<g id="clust2" class="cluster"><title>cluster_\BabDev</title>
<path fill="none" stroke="gray" d="M28,-52C28,-52 321.063,-52 321.063,-52 327.063,-52 333.063,-58 333.063,-64 333.063,-64 333.063,-632 333.063,-632 333.063,-638 327.063,-644 321.063,-644 321.063,-644 28,-644 28,-644 22,-644 16,-638 16,-632 16,-632 16,-64 16,-64 16,-58 22,-52 28,-52"/>
<text text-anchor="middle" x="174.532" y="-631.2" font-family="Times,serif" font-size="11.00" fill="gray">BabDev</text>
</g>
<g id="clust3" class="cluster"><title>cluster_\BabDev\Transifex</title>
<path fill="none" stroke="gray" d="M36,-60C36,-60 313.063,-60 313.063,-60 319.063,-60 325.063,-66 325.063,-72 325.063,-72 325.063,-605 325.063,-605 325.063,-611 319.063,-617 313.063,-617 313.063,-617 36,-617 36,-617 30,-617 24,-611 24,-605 24,-605 24,-72 24,-72 24,-66 30,-60 36,-60"/>
<text text-anchor="middle" x="174.532" y="-604.2" font-family="Times,serif" font-size="11.00" fill="gray">Transifex</text>
</g>
<!-- \\BabDev\\Transifex\\Formats -->
<g id="node1" class="node"><title>\\BabDev\\Transifex\\Formats</title>
<polygon fill="none" stroke="black" points="296.537,-482 242.537,-482 242.537,-446 296.537,-446 296.537,-482"/>
<text text-anchor="middle" x="269.537" y="-460.7" font-family="Times,serif" font-size="11.00">Formats</text>
</g>
<!-- \\BabDev\\Transifex\\TransifexObject -->
<g id="node9" class="node"><title>\\BabDev\\Transifex\\TransifexObject</title>
<polygon fill="none" stroke="black" points="119.13,-401 31.9567,-401 31.9567,-365 119.13,-365 119.13,-401"/>
<text text-anchor="start" x="52.9417" y="-385.2" font-family="Times,serif" font-size="11.00">«abstract»</text>
<text text-anchor="start" x="40" y="-374.2" font-family="Times,serif" font-size="11.00">TransifexObject</text>
</g>
<!-- \\BabDev\\Transifex\\Formats&#45;&gt;\\BabDev\\Transifex\\TransifexObject -->
<g id="edge1" class="edge"><title>\\BabDev\\Transifex\\Formats&#45;&gt;\\BabDev\\Transifex\\TransifexObject</title>
<path fill="none" stroke="black" d="M242.244,-452.907C213.207,-440.657 165.71,-420.619 128.996,-405.129"/>
<polygon fill="none" stroke="black" points="130.007,-401.757 119.432,-401.094 127.286,-408.206 130.007,-401.757"/>
</g>
<!-- \\BabDev\\Transifex\\Http -->
<g id="node2" class="node"><title>\\BabDev\\Transifex\\Http</title>
<polygon fill="none" stroke="black" points="296.537,-104 242.537,-104 242.537,-68 296.537,-68 296.537,-104"/>
<text text-anchor="middle" x="269.537" y="-82.7" font-family="Times,serif" font-size="11.00">Http</text>
</g>
<!-- \\Joomla\\Http\\Http -->
<g id="node12" class="node"><title>\\Joomla\\Http\\Http</title>
<ellipse fill="none" stroke="black" cx="75.5432" cy="-18" rx="74.4362" ry="18"/>
<text text-anchor="middle" x="75.5432" y="-13.8" font-family="Times,serif" font-size="14.00" fill="gray">\Joomla\Http\Http</text>
</g>
<!-- \\BabDev\\Transifex\\Http&#45;&gt;\\Joomla\\Http\\Http -->
<g id="edge2" class="edge"><title>\\BabDev\\Transifex\\Http&#45;&gt;\\Joomla\\Http\\Http</title>
<path fill="none" stroke="black" d="M242.244,-76.6875C212.924,-66.3031 164.783,-49.2527 127.926,-36.1987"/>
<polygon fill="none" stroke="black" points="128.932,-32.8419 118.337,-32.8025 126.595,-39.4403 128.932,-32.8419"/>
</g>
<!-- \\BabDev\\Transifex\\Languageinfo -->
<g id="node3" class="node"><title>\\BabDev\\Transifex\\Languageinfo</title>
<polygon fill="none" stroke="black" points="308.123,-428 230.952,-428 230.952,-392 308.123,-392 308.123,-428"/>
<text text-anchor="middle" x="269.537" y="-406.7" font-family="Times,serif" font-size="11.00">Languageinfo</text>
</g>
<!-- \\BabDev\\Transifex\\Languageinfo&#45;&gt;\\BabDev\\Transifex\\TransifexObject -->
<g id="edge3" class="edge"><title>\\BabDev\\Transifex\\Languageinfo&#45;&gt;\\BabDev\\Transifex\\TransifexObject</title>
<path fill="none" stroke="black" d="M230.605,-404.666C201.712,-400.602 161.578,-394.958 129.517,-390.45"/>
<polygon fill="none" stroke="black" points="129.806,-386.956 119.416,-389.029 128.831,-393.888 129.806,-386.956"/>
</g>
<!-- \\BabDev\\Transifex\\Languages -->
<g id="node4" class="node"><title>\\BabDev\\Transifex\\Languages</title>
<polygon fill="none" stroke="black" points="301.185,-374 237.889,-374 237.889,-338 301.185,-338 301.185,-374"/>
<text text-anchor="middle" x="269.537" y="-352.7" font-family="Times,serif" font-size="11.00">Languages</text>
</g>
<!-- \\BabDev\\Transifex\\Languages&#45;&gt;\\BabDev\\Transifex\\TransifexObject -->
<g id="edge4" class="edge"><title>\\BabDev\\Transifex\\Languages&#45;&gt;\\BabDev\\Transifex\\TransifexObject</title>
<path fill="none" stroke="black" d="M237.69,-360.338C208.457,-364.449 163.964,-370.706 129.13,-375.605"/>
<polygon fill="none" stroke="black" points="128.536,-372.154 119.121,-377.012 129.511,-379.085 128.536,-372.154"/>
</g>
<!-- \\BabDev\\Transifex\\Projects -->
<g id="node5" class="node"><title>\\BabDev\\Transifex\\Projects</title>
<polygon fill="none" stroke="black" points="296.537,-320 242.537,-320 242.537,-284 296.537,-284 296.537,-320"/>
<text text-anchor="middle" x="269.537" y="-298.7" font-family="Times,serif" font-size="11.00">Projects</text>
</g>
<!-- \\BabDev\\Transifex\\Projects&#45;&gt;\\BabDev\\Transifex\\TransifexObject -->
<g id="edge5" class="edge"><title>\\BabDev\\Transifex\\Projects&#45;&gt;\\BabDev\\Transifex\\TransifexObject</title>
<path fill="none" stroke="black" d="M242.244,-313.093C213.207,-325.343 165.71,-345.381 128.996,-360.871"/>
<polygon fill="none" stroke="black" points="127.286,-357.794 119.432,-364.906 130.007,-364.243 127.286,-357.794"/>
</g>
<!-- \\BabDev\\Transifex\\Resources -->
<g id="node6" class="node"><title>\\BabDev\\Transifex\\Resources</title>
<polygon fill="none" stroke="black" points="300.246,-266 238.828,-266 238.828,-230 300.246,-230 300.246,-266"/>
<text text-anchor="middle" x="269.537" y="-244.7" font-family="Times,serif" font-size="11.00">Resources</text>
</g>
<!-- \\BabDev\\Transifex\\Resources&#45;&gt;\\BabDev\\Transifex\\TransifexObject -->
<g id="edge6" class="edge"><title>\\BabDev\\Transifex\\Resources&#45;&gt;\\BabDev\\Transifex\\TransifexObject</title>
<path fill="none" stroke="black" d="M238.697,-264.647C233.085,-267.966 227.315,-271.508 222.011,-275 181.123,-301.92 136.185,-336.025 107.234,-358.63"/>
<polygon fill="none" stroke="black" points="104.857,-356.045 99.1467,-364.969 109.176,-361.554 104.857,-356.045"/>
</g>
<!-- \\BabDev\\Transifex\\Statistics -->
<g id="node7" class="node"><title>\\BabDev\\Transifex\\Statistics</title>
<polygon fill="none" stroke="black" points="297.262,-158 241.812,-158 241.812,-122 297.262,-122 297.262,-158"/>
<text text-anchor="middle" x="269.537" y="-136.7" font-family="Times,serif" font-size="11.00">Statistics</text>
</g>
<!-- \\BabDev\\Transifex\\Statistics&#45;&gt;\\BabDev\\Transifex\\TransifexObject -->
<g id="edge7" class="edge"><title>\\BabDev\\Transifex\\Statistics&#45;&gt;\\BabDev\\Transifex\\TransifexObject</title>
<path fill="none" stroke="black" d="M241.511,-152.93C234.719,-156.892 227.741,-161.641 222.011,-167 160.793,-224.255 111.95,-311.868 89.665,-355.839"/>
<polygon fill="none" stroke="black" points="86.5342,-354.274 85.194,-364.784 92.7957,-357.404 86.5342,-354.274"/>
</g>
<!-- \\BabDev\\Transifex\\Transifex -->
<g id="node8" class="node"><title>\\BabDev\\Transifex\\Transifex</title>
<polygon fill="none" stroke="black" points="298.303,-212 240.771,-212 240.771,-176 298.303,-176 298.303,-212"/>
<text text-anchor="middle" x="269.537" y="-190.7" font-family="Times,serif" font-size="11.00">Transifex</text>
</g>
<!-- \\BabDev\\Transifex\\Translations -->
<g id="node10" class="node"><title>\\BabDev\\Transifex\\Translations</title>
<polygon fill="none" stroke="black" points="304.533,-590 234.542,-590 234.542,-554 304.533,-554 304.533,-590"/>
<text text-anchor="middle" x="269.537" y="-568.7" font-family="Times,serif" font-size="11.00">Translations</text>
</g>
<!-- \\BabDev\\Transifex\\Translations&#45;&gt;\\BabDev\\Transifex\\TransifexObject -->
<g id="edge8" class="edge"><title>\\BabDev\\Transifex\\Translations&#45;&gt;\\BabDev\\Transifex\\TransifexObject</title>
<path fill="none" stroke="black" d="M234.17,-553.724C229.937,-550.996 225.78,-548.063 222.011,-545 170.903,-503.461 121.98,-443.424 95.9417,-409.309"/>
<polygon fill="none" stroke="black" points="98.6501,-407.088 89.8275,-401.222 93.0662,-411.31 98.6501,-407.088"/>
</g>
<!-- \\BabDev\\Transifex\\Translationstrings -->
<g id="node11" class="node"><title>\\BabDev\\Transifex\\Translationstrings</title>
<polygon fill="none" stroke="black" points="317.089,-536 221.985,-536 221.985,-500 317.089,-500 317.089,-536"/>
<text text-anchor="middle" x="269.537" y="-514.7" font-family="Times,serif" font-size="11.00">Translationstrings</text>
</g>
<!-- \\BabDev\\Transifex\\Translationstrings&#45;&gt;\\BabDev\\Transifex\\TransifexObject -->
<g id="edge9" class="edge"><title>\\BabDev\\Transifex\\Translationstrings&#45;&gt;\\BabDev\\Transifex\\TransifexObject</title>
<path fill="none" stroke="black" d="M236.213,-499.875C231.398,-496.993 226.535,-493.979 222.011,-491 181.123,-464.08 136.185,-429.975 107.234,-407.37"/>
<polygon fill="none" stroke="black" points="109.176,-404.446 99.1467,-401.031 104.857,-409.955 109.176,-404.446"/>
</g>
</g>
</svg>
